<svg version="1.2" xmlns="http://www.w3.org/2000/svg" viewBox="0 0 1557 287" width="1557" height="287">
	<title>CERA Annual Report 2021-22-1-pdf-svg</title>
	<defs>
		<clipPath clipPathUnits="userSpaceOnUse" id="cp1">
			<path d="m-222.74-471.8h7178.61v9279.27h-7178.61z"/>
		</clipPath>
	</defs>
	<style>
		.s0 { fill: #0d73ba } 
	</style>
	<g id="Clip-Path: Page 1" clip-path="url(#cp1)">
		<g id="Page 1">
			<path id="Path 29" class="s0" d="m963.1 168.5h-125.5v118.3h-70.3v-176.9h236.3c10 0 15.8-1.7 19.9-4.7 3-1.1 4.2-5.2 4.2-11.1v-19.3c0-4.7-1.2-8.8-4.2-10-4.1-2.9-9.9-4.1-19.9-4.1h-236.3v-59.2h236.3c8.8 0 15.8 1.2 22.9 1.2 7 1.8 12.3 2.9 18.2 4.1 7 1.8 11.1 4.7 17 5.9 4.1 2.9 8.2 5.8 12.3 9.9 4.1 3 7 7.1 10 11.2 4.1 4.1 5.8 8.2 7 12.8 2.9 4.1 4.1 9.4 4.1 14.1 1.8 4.1 1.8 9.4 1.8 15.2v18.2c0 10-1.8 18.2-4.7 26.9-2.4 8.2-7.1 15.3-12.4 22.3-7 7-14 12.9-24 17-5.9 1.2-12.9 4.1-19.9 5.9l63.3 120.6h-74.5zm-567.1-167.5h292.6v59.2h-223.4v48h164.2v57.4h-164.2v63.3h223.4v58h-292.6zm1038.7 222h-134.9l38.1-58h60.4l-55.1-85.5-134.9 206.8h-77.4l188.2-285.3h48.1l188.9 285.3h-80.4zm-1341.3 63.2c-7 0-15.8 0-21.1-1.7-7 0-14.1-1.2-19.9-4.1-5.9-1.2-11.2-3-15.3-5.3-5.9-2.9-10-5.9-14.1-8.8-4.7-4.1-7-7-9.9-11.1-3-4.1-5.9-8.2-7.1-12.9-1.7-4.1-2.9-9.4-4.1-14.1 0-5.2-1.7-11.1-1.7-15.2v-137.7c0-11.1 1.7-21.1 5.8-29.8 1.2-4.1 4.1-8.2 7.1-12.4 2.9-4.1 5.2-8.7 9.9-11.1 4.1-4.7 8.2-7 14.1-9.9 4.1-1.8 9.4-4.1 15.3-5.9 5.8-1.2 12.9-2.9 19.9-4.1 5.3 0 14.1-1.2 21.1-1.2h225.2v58.6h-225.2c-8.8 0-15.8 1.8-18.8 4.7-4.1 1.2-5.2 5.3-5.2 9.4v139.4c0 5.9 1.1 8.2 5.2 11.1 3 3 10 4.1 18.8 4.1h225.2v58z"/>
		</g>
	</g>
</svg>